<svg id="svg" version="1.1" xmlns="http://www.w3.org/2000/svg" xmlns:xlink="http://www.w3.org/1999/xlink" width="400" height="467.70428015564204" viewBox="0, 0, 400,467.70428015564204"><g id="svgg"><path id="path0" d="M208.414 150.374 C 207.639 151.821,207.857 431.059,208.633 431.357 C 208.981 431.491,252.181 431.600,304.633 431.600 L 400.000 431.600 400.000 322.400 L 400.000 213.200 373.995 213.200 L 347.991 213.200 348.095 181.400 L 348.200 149.600 278.514 149.600 C 210.027 149.600,208.821 149.613,208.414 150.374 M317.131 262.746 C 336.850 268.627,338.434 292.848,319.500 298.949 C 318.247 299.353,318.757 299.912,321.030 300.627 C 338.347 306.074,339.225 329.448,322.400 337.116 C 316.321 339.886,314.287 340.070,291.400 339.925 L 271.800 339.800 271.698 300.664 L 271.596 261.529 292.898 261.700 C 313.376 261.865,314.313 261.906,317.131 262.746 M284.800 283.786 C 284.800 293.334,284.821 293.583,285.644 294.024 C 286.238 294.341,290.190 294.431,298.944 294.327 L 311.400 294.179 313.436 293.115 C 320.099 289.634,321.408 280.922,315.968 276.265 C 313.448 274.109,312.590 274.000,298.054 274.000 L 284.800 274.000 284.800 283.786 M285.002 306.872 C 284.877 307.382,284.825 312.210,284.887 317.600 L 285.000 327.400 298.400 327.514 C 313.392 327.642,314.253 327.535,316.908 325.198 C 322.849 319.968,321.601 310.672,314.482 307.137 C 312.638 306.221,312.324 306.199,298.915 306.073 L 285.229 305.944 285.002 306.872 " stroke="none" fill="#fc5c7c" fill-rule="evenodd"></path><path id="path1" d="M192.140 233.800 L 192.081 467.600 200.440 467.600 L 208.800 467.600 208.800 449.400 C 208.800 437.499,208.661 431.200,208.399 431.200 C 208.009 431.200,208.107 258.514,208.601 75.300 L 208.804 0.000 200.502 0.000 L 192.200 0.000 192.140 233.800 M89.313 149.691 C 88.518 151.366,87.704 153.340,83.002 165.000 C 80.429 171.380,78.050 177.230,77.714 178.000 C 77.379 178.770,76.871 179.940,76.586 180.600 C 76.300 181.260,75.136 184.140,74.000 187.000 C 72.864 189.860,71.660 192.830,71.326 193.600 C 70.992 194.370,70.575 195.360,70.400 195.800 C 70.225 196.240,69.810 197.230,69.477 198.000 C 69.145 198.770,66.948 204.170,64.596 210.000 C 60.458 220.256,59.887 221.643,58.600 224.560 C 57.577 226.881,57.424 226.828,64.861 226.709 L 71.723 226.600 75.561 217.200 L 79.400 207.800 95.600 207.689 C 114.140 207.561,113.259 207.475,113.948 209.486 C 114.233 210.319,114.707 211.540,115.001 212.200 C 115.295 212.860,116.105 214.840,116.800 216.600 C 118.101 219.894,118.500 220.841,119.953 224.096 C 120.419 225.138,120.800 226.173,120.800 226.396 C 120.800 226.652,123.284 226.800,127.600 226.800 C 135.589 226.800,135.113 227.333,132.600 221.195 C 131.610 218.778,129.974 214.775,128.964 212.300 C 127.955 209.825,126.857 207.170,126.524 206.400 C 126.191 205.630,125.781 204.640,125.613 204.200 C 125.226 203.188,124.648 201.788,123.880 200.000 C 123.549 199.230,121.713 194.730,119.800 190.000 C 117.887 185.270,116.051 180.770,115.720 180.000 C 114.952 178.212,114.374 176.812,113.987 175.800 C 113.819 175.360,113.408 174.370,113.073 173.600 C 112.738 172.830,111.895 170.760,111.200 169.000 C 110.505 167.240,109.697 165.260,109.406 164.600 C 108.659 162.909,107.867 161.001,105.254 154.600 L 102.968 149.000 96.357 148.891 C 89.823 148.783,89.740 148.792,89.313 149.691 M101.403 178.723 C 103.749 184.595,105.923 189.985,106.234 190.700 C 106.545 191.415,107.070 192.612,107.400 193.360 C 108.631 196.153,109.268 196.000,96.400 196.000 C 82.866 196.000,83.952 196.592,86.433 190.566 C 87.332 188.385,89.050 184.170,90.252 181.200 C 91.454 178.230,92.685 175.260,92.988 174.600 C 93.472 173.544,94.513 170.981,95.647 168.057 C 96.295 166.387,96.984 167.664,101.403 178.723 M271.698 300.664 L 271.800 339.800 291.400 339.925 C 314.287 340.070,316.321 339.886,322.400 337.116 C 339.225 329.448,338.347 306.074,321.030 300.627 C 318.757 299.912,318.247 299.353,319.500 298.949 C 335.679 293.736,337.473 272.409,322.374 264.787 C 316.670 261.907,316.505 261.890,292.898 261.700 L 271.596 261.529 271.698 300.664 M312.857 274.464 C 321.126 276.942,321.497 288.903,313.436 293.115 L 311.400 294.179 298.944 294.327 C 290.190 294.431,286.238 294.341,285.644 294.024 C 284.821 293.583,284.800 293.334,284.800 283.786 L 284.800 274.000 298.054 274.000 C 306.955 274.000,311.816 274.152,312.857 274.464 M314.482 307.137 C 321.601 310.672,322.849 319.968,316.908 325.198 C 314.253 327.535,313.392 327.642,298.400 327.514 L 285.000 327.400 284.887 317.600 C 284.825 312.210,284.877 307.382,285.002 306.872 L 285.229 305.944 298.915 306.073 C 312.324 306.199,312.638 306.221,314.482 307.137 " stroke="none" fill="#24045c" fill-rule="evenodd"></path><path id="path2" d="M348.263 149.870 C 348.118 150.015,348.000 164.323,348.000 181.667 L 348.000 213.200 374.000 213.200 L 400.000 213.200 400.000 212.243 C 400.000 211.716,399.730 211.182,399.400 211.055 C 399.070 210.929,398.800 210.622,398.800 210.373 C 398.800 210.124,398.260 209.417,397.600 208.800 C 396.940 208.183,396.400 207.503,396.400 207.288 C 396.400 207.072,395.708 206.290,394.862 205.548 C 394.016 204.807,393.024 203.620,392.657 202.911 C 392.291 202.202,391.280 200.918,390.411 200.058 C 389.542 199.197,388.779 198.253,388.716 197.960 C 388.652 197.666,387.790 196.610,386.800 195.613 C 385.810 194.616,384.745 193.305,384.432 192.700 C 384.120 192.095,383.721 191.600,383.546 191.600 C 383.115 191.600,380.400 188.863,380.400 188.429 C 380.400 188.240,379.882 187.505,379.249 186.796 C 377.569 184.915,377.338 184.615,377.158 184.074 C 376.975 183.524,373.976 180.105,371.100 177.166 C 370.055 176.098,369.200 175.027,369.200 174.786 C 369.200 174.545,368.345 173.498,367.300 172.459 C 366.255 171.420,365.130 170.093,364.800 169.511 C 364.039 168.167,361.939 165.654,359.500 163.168 C 358.455 162.103,357.600 161.044,357.600 160.816 C 357.600 160.587,357.420 160.400,357.200 160.400 C 356.980 160.400,356.800 160.206,356.800 159.969 C 356.800 159.731,356.080 158.846,355.200 158.000 C 354.320 157.154,353.600 156.273,353.600 156.041 C 353.600 155.808,352.614 154.600,351.409 153.356 C 350.204 152.112,349.302 150.958,349.405 150.792 C 349.654 150.388,348.598 149.535,348.263 149.870 " stroke="none" fill="#f70923" fill-rule="evenodd"></path><path id="path3" d="M50.584 41.974 C 50.711 42.180,50.362 42.802,49.808 43.356 C 49.253 43.910,48.800 44.582,48.800 44.848 C 48.800 45.115,48.691 45.224,48.558 45.091 C 48.252 44.785,46.400 46.607,46.400 47.213 C 46.400 47.460,45.665 48.369,44.767 49.231 C 43.869 50.094,43.239 50.800,43.367 50.800 C 43.495 50.800,42.924 51.505,42.100 52.368 C 41.275 53.230,40.150 54.504,39.600 55.198 C 38.508 56.577,37.573 57.709,36.376 59.103 C 35.949 59.600,35.600 60.195,35.600 60.427 C 35.600 60.658,35.420 60.736,35.200 60.600 C 34.980 60.464,34.800 60.651,34.800 61.016 C 34.800 61.381,34.241 62.201,33.558 62.840 C 32.874 63.478,32.410 64.000,32.526 64.000 C 32.642 64.000,31.941 64.796,30.968 65.768 C 29.996 66.741,29.200 67.647,29.200 67.782 C 29.200 67.917,28.705 68.554,28.100 69.198 C 25.006 72.491,24.475 73.141,24.694 73.361 C 24.826 73.492,24.713 73.600,24.443 73.600 C 24.173 73.600,24.064 73.780,24.200 74.000 C 24.336 74.220,24.161 74.400,23.811 74.400 C 23.461 74.400,23.063 74.715,22.926 75.100 C 22.630 75.931,20.271 78.973,18.785 80.441 C 18.205 81.013,17.617 81.778,17.478 82.141 C 17.339 82.503,16.949 82.800,16.613 82.800 C 16.276 82.800,16.000 83.081,16.000 83.424 C 16.000 83.767,15.820 83.936,15.600 83.800 C 15.380 83.664,15.200 83.884,15.200 84.288 C 15.200 84.693,14.840 85.283,14.400 85.600 C 13.960 85.917,13.597 86.542,13.594 86.988 C 13.589 87.659,13.520 87.696,13.200 87.200 C 12.871 86.691,12.811 86.710,12.806 87.324 C 12.803 87.722,12.620 87.936,12.400 87.800 C 12.180 87.664,12.000 87.844,12.000 88.200 C 12.000 88.556,11.820 88.736,11.600 88.600 C 11.380 88.464,11.200 88.651,11.200 89.016 C 11.200 89.381,10.666 90.178,10.014 90.787 C 9.362 91.396,8.942 92.008,9.081 92.147 C 9.220 92.286,9.113 92.400,8.843 92.400 C 8.573 92.400,8.464 92.580,8.600 92.800 C 8.736 93.020,8.567 93.200,8.224 93.200 C 7.881 93.200,7.600 93.430,7.600 93.712 C 7.600 93.993,7.240 94.483,6.800 94.800 C 6.360 95.117,6.000 95.617,6.000 95.912 C 6.000 96.206,5.820 96.336,5.600 96.200 C 5.380 96.064,5.200 96.323,5.200 96.776 C 5.200 97.229,5.003 97.555,4.763 97.500 C 4.522 97.445,4.117 97.746,3.863 98.169 C 3.608 98.592,2.905 99.474,2.300 100.128 C 1.695 100.783,1.200 101.483,1.200 101.683 C 1.200 101.883,1.050 101.955,0.867 101.841 C 0.683 101.728,0.525 101.852,0.514 102.118 C 0.504 102.383,0.364 102.916,0.204 103.303 C -0.073 103.970,1.249 104.001,26.056 103.903 L 52.200 103.800 52.310 73.600 C 52.427 41.483,52.432 41.600,51.169 41.600 C 50.720 41.600,50.457 41.768,50.584 41.974 M192.198 182.000 C 192.198 259.110,192.244 290.655,192.300 252.100 C 192.356 213.545,192.356 150.455,192.300 111.900 C 192.244 73.345,192.198 104.890,192.198 182.000 M88.921 149.300 C 88.693 149.795,88.321 150.650,88.094 151.200 C 87.867 151.750,87.398 152.848,87.051 153.639 C 86.704 154.430,85.781 156.753,85.000 158.800 C 84.219 160.847,83.296 163.170,82.949 163.961 C 82.068 165.971,81.183 168.127,80.346 170.300 C 79.727 171.908,79.294 172.971,78.593 174.600 C 77.379 177.424,76.726 178.980,76.413 179.800 C 76.019 180.830,75.307 182.556,74.804 183.700 C 73.233 187.272,68.404 199.433,68.420 199.775 C 68.438 200.156,69.564 197.895,70.399 195.800 C 70.575 195.360,70.992 194.370,71.326 193.600 C 71.660 192.830,72.864 189.860,74.000 187.000 C 75.136 184.140,76.343 181.170,76.681 180.400 C 77.943 177.524,78.430 176.336,83.002 165.000 C 87.704 153.340,88.518 151.366,89.313 149.691 C 89.740 148.792,89.823 148.783,96.357 148.891 L 102.968 149.000 105.254 154.600 C 107.867 161.001,108.659 162.909,109.406 164.600 C 109.697 165.260,110.505 167.240,111.200 169.000 C 111.895 170.760,112.738 172.830,113.073 173.600 C 113.408 174.370,113.819 175.360,113.987 175.800 C 114.374 176.812,114.952 178.212,115.720 180.000 C 116.051 180.770,117.887 185.270,119.800 190.000 C 121.713 194.730,123.549 199.230,123.880 200.000 C 124.211 200.770,124.619 201.760,124.787 202.200 C 125.197 203.272,125.790 204.704,126.526 206.400 C 126.861 207.170,127.881 209.679,128.794 211.976 C 129.707 214.273,130.705 216.613,131.011 217.176 C 131.856 218.729,131.708 217.425,130.820 215.496 C 130.391 214.563,129.297 211.910,128.387 209.600 C 127.478 207.290,126.461 204.770,126.126 204.000 C 125.792 203.230,125.375 202.240,125.200 201.800 C 125.025 201.360,124.593 200.325,124.241 199.500 C 123.888 198.675,123.312 197.325,122.959 196.500 C 121.945 194.125,121.067 191.977,120.386 190.200 C 120.218 189.760,119.702 188.547,119.240 187.504 C 118.778 186.462,118.400 185.454,118.400 185.266 C 118.400 185.077,118.145 184.400,117.833 183.761 C 117.522 183.123,115.884 179.180,114.193 175.000 C 112.503 170.820,110.850 166.770,110.519 166.000 C 110.189 165.230,109.780 164.240,109.610 163.800 C 109.440 163.360,108.896 162.100,108.400 161.000 C 107.518 159.043,107.044 157.913,106.346 156.100 C 106.156 155.605,105.796 154.705,105.546 154.100 C 105.297 153.495,104.955 152.640,104.787 152.200 C 104.619 151.760,104.185 150.725,103.822 149.900 L 103.162 148.400 96.249 148.400 C 89.468 148.400,89.327 148.417,88.921 149.300 M95.647 168.057 C 94.546 170.898,93.474 173.540,92.994 174.600 C 91.874 177.072,91.195 178.928,91.353 179.086 C 91.611 179.344,92.800 176.758,92.800 175.939 C 92.800 175.532,92.980 175.200,93.200 175.200 C 93.420 175.200,93.600 174.928,93.600 174.595 C 93.600 174.262,93.759 173.677,93.953 173.295 C 94.148 172.913,94.488 172.150,94.710 171.600 C 96.338 167.563,96.430 167.516,97.449 170.200 C 98.307 172.461,102.056 181.797,102.669 183.199 C 103.006 183.970,103.419 184.960,103.587 185.400 C 104.062 186.643,104.646 188.032,105.560 190.096 C 106.022 191.138,106.400 192.253,106.400 192.572 C 106.400 192.891,106.580 193.264,106.800 193.400 C 107.020 193.536,107.200 194.087,107.200 194.624 L 107.200 195.600 96.200 195.600 C 90.150 195.600,85.200 195.474,85.200 195.320 C 85.200 194.816,88.107 187.410,88.458 187.020 C 88.646 186.811,88.795 186.361,88.788 186.020 C 88.770 185.094,88.169 186.254,86.354 190.712 C 83.971 196.571,82.886 196.000,96.400 196.000 C 109.268 196.000,108.631 196.153,107.400 193.360 C 107.070 192.612,106.545 191.415,106.234 190.700 C 105.923 189.985,103.749 184.595,101.403 178.723 C 96.984 167.664,96.295 166.387,95.647 168.057 M89.832 182.232 C 89.245 183.698,88.858 184.991,88.973 185.106 C 89.087 185.221,89.292 184.974,89.427 184.557 C 89.744 183.581,90.279 182.258,90.867 181.001 C 91.124 180.451,91.237 179.903,91.117 179.783 C 90.997 179.664,90.419 180.765,89.832 182.232 M67.423 201.806 C 67.081 202.626,66.800 203.368,66.800 203.453 C 66.800 203.539,66.422 204.462,65.960 205.504 C 65.131 207.375,64.732 208.337,64.054 210.100 C 63.863 210.595,63.479 211.540,63.200 212.200 C 62.921 212.860,62.555 213.760,62.387 214.200 C 62.219 214.640,61.808 215.630,61.474 216.400 C 59.871 220.090,57.600 226.080,57.600 226.617 C 57.600 227.134,58.617 227.203,64.838 227.109 L 72.077 227.000 73.836 222.600 C 74.803 220.180,75.775 217.795,75.997 217.300 C 76.219 216.805,76.580 215.950,76.800 215.400 C 77.020 214.850,77.380 213.950,77.600 213.400 C 78.013 212.368,78.351 211.534,79.264 209.300 L 79.795 208.000 96.233 208.000 L 112.672 208.000 113.176 209.100 C 113.454 209.705,114.217 211.550,114.873 213.200 C 115.528 214.850,116.338 216.830,116.673 217.600 C 117.008 218.370,117.419 219.360,117.587 219.800 C 118.369 221.847,118.747 222.723,119.543 224.338 C 120.014 225.294,120.400 226.329,120.400 226.638 C 120.400 227.100,121.711 227.200,127.808 227.200 L 135.215 227.200 134.942 226.100 C 134.542 224.489,133.582 222.285,133.371 222.495 C 133.271 222.595,133.462 223.329,133.795 224.126 C 134.948 226.887,135.149 226.800,127.600 226.800 C 123.284 226.800,120.800 226.652,120.800 226.396 C 120.800 226.173,120.419 225.138,119.953 224.096 C 118.500 220.841,118.101 219.894,116.800 216.600 C 116.105 214.840,115.295 212.860,115.001 212.200 C 114.707 211.540,114.233 210.319,113.948 209.486 C 113.259 207.475,114.140 207.561,95.600 207.689 L 79.400 207.800 75.561 217.200 L 71.723 226.600 64.861 226.709 C 59.990 226.787,58.000 226.689,58.000 226.370 C 58.000 225.972,58.311 225.180,59.638 222.200 C 61.304 218.456,68.353 200.620,68.219 200.486 C 68.124 200.391,67.766 200.985,67.423 201.806 M131.630 218.700 C 131.690 219.311,133.142 222.184,133.170 221.749 C 133.207 221.190,132.061 218.400,131.795 218.400 C 131.688 218.400,131.613 218.535,131.630 218.700 " stroke="none" fill="#06b3c4" fill-rule="evenodd"></path><path id="path4" d="M51.000 41.200 C 50.864 41.420,51.030 41.600,51.369 41.600 C 52.400 41.600,52.424 42.416,52.310 73.600 L 52.200 103.800 26.100 103.903 L -0.000 104.006 -0.000 213.203 L 0.000 322.400 96.000 322.400 L 192.000 322.400 192.000 181.600 L 192.000 40.800 121.624 40.800 C 75.137 40.800,51.163 40.936,51.000 41.200 M103.822 149.900 C 104.185 150.725,104.619 151.760,104.787 152.200 C 104.955 152.640,105.297 153.495,105.546 154.100 C 105.796 154.705,106.156 155.605,106.346 156.100 C 107.044 157.913,107.518 159.043,108.400 161.000 C 108.896 162.100,109.440 163.360,109.610 163.800 C 109.780 164.240,110.189 165.230,110.519 166.000 C 110.850 166.770,112.503 170.820,114.193 175.000 C 115.884 179.180,117.522 183.123,117.833 183.761 C 118.145 184.400,118.400 185.077,118.400 185.266 C 118.400 185.454,118.778 186.462,119.240 187.504 C 119.702 188.547,120.218 189.760,120.386 190.200 C 121.067 191.977,121.945 194.125,122.959 196.500 C 123.312 197.325,123.888 198.675,124.241 199.500 C 124.593 200.325,125.025 201.360,125.200 201.800 C 125.375 202.240,125.792 203.230,126.126 204.000 C 126.461 204.770,127.478 207.290,128.387 209.600 C 129.297 211.910,130.391 214.563,130.820 215.496 C 131.249 216.428,131.600 217.339,131.600 217.521 C 131.600 217.702,131.960 218.595,132.400 219.506 C 132.840 220.416,133.200 221.316,133.200 221.506 C 133.200 221.695,133.535 222.559,133.945 223.425 C 134.355 224.291,134.808 225.495,134.953 226.100 L 135.215 227.200 127.808 227.200 C 121.711 227.200,120.400 227.100,120.400 226.638 C 120.400 226.329,120.014 225.294,119.543 224.338 C 119.072 223.382,118.532 222.195,118.343 221.700 C 117.760 220.171,117.306 219.057,116.673 217.600 C 116.338 216.830,115.528 214.850,114.873 213.200 C 114.217 211.550,113.454 209.705,113.176 209.100 L 112.672 208.000 96.233 208.000 L 79.795 208.000 79.264 209.300 C 78.351 211.534,78.013 212.368,77.600 213.400 C 77.380 213.950,77.020 214.850,76.800 215.400 C 76.580 215.950,76.219 216.805,75.997 217.300 C 75.775 217.795,74.803 220.180,73.836 222.600 L 72.077 227.000 64.838 227.109 C 58.617 227.203,57.600 227.134,57.600 226.617 C 57.600 226.080,59.871 220.090,61.474 216.400 C 62.128 214.893,62.672 213.587,63.307 212.000 C 63.527 211.450,63.887 210.550,64.107 210.000 C 64.327 209.450,64.645 208.640,64.814 208.200 C 64.982 207.760,65.498 206.547,65.960 205.504 C 66.422 204.462,66.800 203.515,66.800 203.400 C 66.800 203.285,67.139 202.428,67.554 201.496 C 67.969 200.563,69.608 196.560,71.195 192.600 C 72.783 188.640,74.352 184.770,74.682 184.000 C 75.464 182.173,76.034 180.790,76.413 179.800 C 76.726 178.980,77.379 177.424,78.593 174.600 C 79.294 172.971,79.727 171.908,80.346 170.300 C 81.183 168.127,82.068 165.971,82.949 163.961 C 83.296 163.170,84.219 160.847,85.000 158.800 C 85.781 156.753,86.704 154.430,87.051 153.639 C 87.398 152.848,87.867 151.750,88.094 151.200 C 89.363 148.126,88.566 148.400,96.249 148.400 L 103.162 148.400 103.822 149.900 M95.659 169.312 C 94.551 172.027,94.296 172.621,93.953 173.295 C 93.759 173.677,93.600 174.262,93.600 174.595 C 93.600 174.928,93.420 175.200,93.200 175.200 C 92.980 175.200,92.800 175.543,92.800 175.962 C 92.800 176.381,92.414 177.506,91.943 178.462 C 91.122 180.127,90.637 181.261,90.000 183.000 C 89.723 183.756,89.123 185.208,88.346 187.000 C 87.512 188.926,85.200 195.022,85.200 195.297 C 85.200 195.464,90.150 195.600,96.200 195.600 L 107.200 195.600 107.200 194.624 C 107.200 194.087,107.020 193.536,106.800 193.400 C 106.580 193.264,106.400 192.891,106.400 192.572 C 106.400 192.253,106.022 191.138,105.560 190.096 C 104.646 188.032,104.062 186.643,103.587 185.400 C 103.419 184.960,103.006 183.970,102.669 183.199 C 101.959 181.574,98.134 172.021,97.419 170.087 C 96.669 168.056,96.247 167.870,95.659 169.312 " stroke="none" fill="#34dbeb" fill-rule="evenodd"></path></g></svg>