<?xml version="1.0" encoding="UTF-8"?>
<svg id="Layer_1" data-name="Layer 1" xmlns="http://www.w3.org/2000/svg" viewBox="0 0 3047.14 600">
  <defs>
    <style>
      .cls-1 {
        fill: #fff;
      }
    </style>
  </defs>
  <g>
    <g>
      <path class="cls-1" d="M681.97,299.09c0-94.82,57.9-163.66,155.91-163.66,81.15,0,136.77,47.41,150.44,127.65h-39.66c-11.85-58.35-52.88-92.54-110.78-92.54-71.58,0-115.8,49.69-115.8,128.56s44.22,130.38,115.8,130.38c59.72,0,98.47-32.37,110.78-92.55h39.66c-14.13,82.97-67.01,127.65-150.44,127.65-98.02,0-155.91-68.84-155.91-165.49Z"/>
      <path class="cls-1" d="M1010.67,336.47c0-80.69,52.88-124,118.53-124,77.05,0,118.53,55.62,118.53,124,0,83.43-50.6,128.1-118.53,128.1-77.5,0-118.53-55.16-118.53-128.1ZM1208.99,336.47c0-54.25-31.46-91.18-79.78-91.18s-79.78,36.93-79.78,91.18c0,62,36.02,95.28,79.78,95.28,51.52,0,79.78-42.85,79.78-95.28Z"/>
      <path class="cls-1" d="M1272.35,379.32v-161.38h37.84v160.02c0,34.65,24.16,53.34,58.35,53.34,45.13,0,69.75-30.09,70.21-66.56v-146.8h37.84v241.62h-30.09l-3.19-36.47c-15.96,27.35-45.13,41.49-78.41,41.49-58.81,0-92.55-36.02-92.55-85.25Z"/>
      <path class="cls-1" d="M1514.92,459.56v-241.62h30.09l4.56,46.04c15.5-31,43.76-47.41,83.88-47.41h8.21v37.38h-8.21c-51.06,0-80.69,29.18-80.69,78.87v126.74h-37.84Z"/>
      <path class="cls-1" d="M1646.8,383.43h36.93c2.74,31.46,31.46,48.78,67.93,48.78,34.19,0,50.6-13.22,50.6-37.38,0-22.79-17.78-27.81-42.85-36.47l-35.1-11.85c-35.56-11.85-71.12-22.79-71.12-66.56,0-41.03,31.91-67.47,84.79-67.47s90.27,28.72,96.19,82.52h-36.93c-4.1-33.74-27.81-50.15-60.63-50.15-29.63,0-46.96,13.22-46.96,34.19,0,25.07,26.44,30.09,46.5,36.93l32.82,10.94c44.22,14.59,70.66,29.63,70.66,69.75,0,42.4-31,67.93-89.81,67.93s-99.84-30.09-103.03-81.15Z"/>
      <path class="cls-1" d="M1855.59,339.66c0-82.52,53.34-127.19,114.43-127.19,66.56,0,109.41,44.68,110.78,122.18v10.49h-187.37c2.28,51.52,32.37,86.62,81.15,86.62,33.74,0,58.35-16.87,68.38-48.32h36.93c-10.94,49.69-50.15,81.15-105.31,81.15-71.57,0-118.99-52.43-118.99-124.91ZM2041.14,313.68c-6.84-42.4-32.37-68.38-71.12-68.38s-66.56,25.07-74.31,68.38h145.43Z"/>
    </g>
    <g>
      <path class="cls-1" d="M2110.91,459.56V140.44h54.71v156.37l144.97-156.37h69.29l-124.91,130.84,134.03,188.28h-67.01l-104.85-148.62-51.52,53.79v94.82h-54.71Z"/>
      <path class="cls-1" d="M2387.64,392.54c.45-56.53,56.53-68.38,103.48-73.85,36.47-4.1,63.37-5.47,63.83-24.62-.46-23.71-18.69-39.21-49.69-39.21s-54.7,17.32-57.9,42.4h-54.25c5.02-51.06,50.6-86.62,113.06-86.62s101.21,35.56,101.21,87.07v109.41c0,6.84,3.65,10.48,11.85,10.48h13.22v41.94h-25.53c-24.62,0-39.66-10.03-43.77-28.27-.91-2.28-1.82-5.47-2.28-8.21-14.13,25.99-40.57,41.49-81.6,41.49-55.62,0-92.09-26.9-91.63-72.03ZM2554.95,368.84v-33.74c-9.12,14.13-32.37,17.32-57.9,20.52-30.09,3.65-55.16,7.75-55.16,33.28,0,20.97,16.87,33.28,48.33,33.28,36.93,0,64.74-20.97,64.74-53.34Z"/>
      <path class="cls-1" d="M2748.24,459.56c-52.43,0-80.69-25.99-80.69-73.85v-122.18h-42.4v-45.59h42.4v-82.51h53.79v82.51h62.46v45.59h-62.46v118.53c0,20.52,10.48,31.91,30.55,31.91h27.35v45.59h-31Z"/>
      <path class="cls-1" d="M2802.33,392.54c.46-56.53,56.53-68.38,103.49-73.85,36.47-4.1,63.37-5.47,63.83-24.62-.46-23.71-18.69-39.21-49.69-39.21s-54.71,17.32-57.9,42.4h-54.25c5.02-51.06,50.6-86.62,113.06-86.62s101.21,35.56,101.21,87.07v109.41c0,6.84,3.65,10.48,11.85,10.48h13.22v41.94h-25.53c-24.62,0-39.66-10.03-43.76-28.27-.91-2.28-1.82-5.47-2.28-8.21-14.13,25.99-40.57,41.49-81.6,41.49-55.62,0-92.09-26.9-91.63-72.03ZM2969.64,368.84v-33.74c-9.12,14.13-32.37,17.32-57.9,20.52-30.09,3.65-55.16,7.75-55.16,33.28,0,20.97,16.87,33.28,48.32,33.28,36.93,0,64.74-20.97,64.74-53.34Z"/>
    </g>
  </g>
  <g>
    <rect id="vertical_line" data-name="vertical line" class="cls-1" x="260.69" width="20" height="600"/>
    <g>
      <g id="left_blue_corner" data-name="left blue corner">
        <polygon class="cls-1" points="474.57 193.15 541.23 273.15 474.57 273.15 474.57 193.15"/>
      </g>
      <g>
        <path class="cls-1" d="M424.09,392.71h-30.65v28.07h32.22c8.59,0,13.89-6.16,13.89-14.18s-6.3-13.89-15.47-13.89Z"/>
        <path class="cls-1" d="M437.84,364.07c0-7.45-5.44-12.75-13.18-12.75h-31.22v26.49h29.93c8.59,0,14.46-5.73,14.46-13.75Z"/>
        <path class="cls-1" d="M474.57,287.15h-14v-94h-166v360h246.67v-266h-66.67ZM424.81,436.25h-48.41v-100.25h47.55c18.19,0,30.93,10.31,30.93,25.35,0,11.46-8.31,20.34-20.62,23.34,13.89,2.15,22.77,11.6,22.77,24.35,0,16.04-13.18,27.21-32.22,27.21Z"/>
      </g>
    </g>
    <g>
      <g id="left_blue_corner-2" data-name="left blue corner">
        <polygon class="cls-1" points="66.67 53.15 0 133.15 66.67 133.15 66.67 53.15"/>
      </g>
      <path class="cls-1" d="M80.67,53.15v94H0v266h246.67V53.15H80.67ZM155.2,291.23l-10.17-24.78h-43.39l-10.17,24.78h-17.76l40.96-100.25h17.19l41.1,100.25h-17.76Z"/>
      <polygon class="cls-1" points="107.8 251.28 138.87 251.28 123.41 213.18 107.8 251.28"/>
    </g>
  </g>
</svg>